<?xml version="1.0" encoding="UTF-8" standalone="no" ?>
<svg xmlns="http://www.w3.org/2000/svg" xmlns:xlink="http://www.w3.org/1999/xlink" version="1.1" width="512" height="512" viewBox="255 160 512 512" xml:space="preserve">
<g transform="matrix(1.5745007680491552 0 0 1.5745007680491552 511.12834059358585 396.31700172731536)" id="logo-logo"  >
	<g transform="matrix(0.45677396403618353 0 0 -0.45677396403618353 -77.3834495390997 18.225032342227678)"  >
<path style="stroke: none; stroke-width: 1; stroke-dasharray: none; stroke-linecap: butt; stroke-dashoffset: 0; stroke-linejoin: miter; stroke-miterlimit: 4; fill: rgb(70,173,179); fill-rule: nonzero; opacity: 1;"  paint-order="stroke"  transform=" translate(-266.996, -379.66)" d="m 360.453 413.098 c -57.594 -23.575 -137.422 -21.602 -186.914 0.937 c 0 0 18.012 -43.387 41.367 -68.75 c 0 0 71.117 2.5 145.547 67.813" stroke-linecap="round" />
</g>
	<g transform="matrix(0.45677396403618353 0 0 -0.45677396403618353 -84.23505917093271 42.20566605364317)"  >
<path style="stroke: none; stroke-width: 1; stroke-dasharray: none; stroke-linecap: butt; stroke-dashoffset: 0; stroke-linejoin: miter; stroke-miterlimit: 4; fill: rgb(72,158,221); fill-rule: nonzero; opacity: 1;"  paint-order="stroke"  transform=" translate(-255.963, -325.5315)" d="M 396.063 435.668 C 345.965 337.582 234.676 289.289 115.863 314.211 C 133.656 275.09 157.645 242.25 186.039 215.395 C 307.938 252.922 386.996 344.191 396.063 435.668" stroke-linecap="round" />
</g>
	<g transform="matrix(0.45677396403618353 0 0 -0.45677396403618353 -49.97701101176773 69.61210458097517)"  >
<path style="stroke: none; stroke-width: 1; stroke-dasharray: none; stroke-linecap: butt; stroke-dashoffset: 0; stroke-linejoin: miter; stroke-miterlimit: 4; fill: rgb(173,59,164); fill-rule: nonzero; opacity: 1;"  paint-order="stroke"  transform=" translate(-326.9515, -268.049)" d="m 233.055 178.801 c 26.894 -17.363 56.148 -30.418 86.66 -39.492 c 56.211 63.925 96.601 146.289 101.133 257.48 C 391.922 310.16 340.574 235.09 233.055 178.801" stroke-linecap="round" />
</g>
	<g transform="matrix(0.45677396403618353 0 0 -0.45677396403618353 -5.441548404853279 76.46371421280813)"  >
<path style="stroke: none; stroke-width: 1; stroke-dasharray: none; stroke-linecap: butt; stroke-dashoffset: 0; stroke-linejoin: miter; stroke-miterlimit: 4; fill: rgb(238,36,82); fill-rule: nonzero; opacity: 1;"  paint-order="stroke"  transform=" translate(-427.4731146574411, -253.8674092085208)" d="M 452.645 384.094 C 445.906 274.887 418.797 190.148 379.109 126.77 c 31.914 -4.122 64.395 -4.149 96.25 -0.215 c 2.832 84.133 -7.304 173.125 -20.097 243.437 c -0.86 4.758 -1.739 9.492 -2.617 14.102" stroke-linecap="round" />
</g>
	<g transform="matrix(0.45677396403618353 0 0 -0.45677396403618353 63.07454791347669 66.18629976505864)"  >
<path style="stroke: none; stroke-width: 1; stroke-dasharray: none; stroke-linecap: butt; stroke-dashoffset: 0; stroke-linejoin: miter; stroke-miterlimit: 4; fill: rgb(244,110,22); fill-rule: nonzero; opacity: 1;"  paint-order="stroke"  transform=" translate(-576.7270000000001, -274.3145)" d="m 474.813 383.188 c 0.488 -3.137 1.035 -6.282 1.66 -9.426 c 17.968 -99.871 71.601 -166.532 126.679 -208.321 c 27.5 14.395 53.004 32.286 75.489 53.711 c -72.325 19.914 -154.317 60.286 -203.828 164.036" stroke-linecap="round" />
</g>
	<g transform="matrix(0.45677396403618353 0 0 -0.45677396403618353 87.05518162489216 38.779861237726635)"  >
<path style="stroke: none; stroke-width: 1; stroke-dasharray: none; stroke-linecap: butt; stroke-dashoffset: 0; stroke-linejoin: miter; stroke-miterlimit: 4; fill: rgb(251,193,8); fill-rule: nonzero; opacity: 1;"  paint-order="stroke"  transform=" translate(-630.5349999999999, -334.35350000000005)" d="m 496.609 405.258 v -0.078 c 27.539 -72.512 119.063 -126.582 220.172 -141.731 c 21.875 31.035 38.403 67.012 47.68 107.91 c -115.156 -15.976 -204.648 -0.918 -267.852 33.899" stroke-linecap="round" />
</g>
	<g transform="matrix(0.45677396403618353 0 0 -0.45677396403618353 73.35196236122619 -12.6072110010208)"  >
<path style="stroke: none; stroke-width: 1; stroke-dasharray: none; stroke-linecap: butt; stroke-dashoffset: 0; stroke-linejoin: miter; stroke-miterlimit: 4; fill: rgb(64,185,60); fill-rule: nonzero; opacity: 1;"  paint-order="stroke"  transform=" translate(-599.8805, -444.6286899398516)" d="m 511.57 425.355 c 91.563 -37.726 159.629 -17.148 159.629 -17.148 c 13.961 31.551 16.992 78.445 16.992 78.445 C 648.641 449.27 573.68 421.664 511.57 425.355" stroke-linecap="round" />
</g>
	<g transform="matrix(0.45677396403618353 0 0 -0.45677396403618353 4.835866042896214 -122.23296511034872)"  >
<path style="stroke: none; stroke-width: 1; stroke-dasharray: none; stroke-linecap: butt; stroke-dashoffset: 0; stroke-linejoin: miter; stroke-miterlimit: 4; fill: rgb(95,36,126); fill-rule: nonzero; opacity: 1;"  paint-order="stroke"  transform=" translate(-449.6598936407597, -683.6452796231154)" d="m 437.352 655.93 c 15.429 -5.039 33.472 3.242 40.308 18.547 c 6.762 15.32 -0.269 31.816 -15.719 36.863 c -15.429 5.098 -33.476 -3.262 -40.238 -18.563 c -6.836 -15.312 0.199 -31.816 15.649 -36.847" stroke-linecap="round" />
</g>
	<g transform="matrix(0.45677396403618353 0 0 -0.45677396403618353 15.113280490645707 -63.99428323976824)"  >
<path style="stroke: none; stroke-width: 1; stroke-dasharray: none; stroke-linecap: butt; stroke-dashoffset: 0; stroke-linejoin: miter; stroke-miterlimit: 4; fill: rgb(95,36,126); fill-rule: nonzero; opacity: 1;"  paint-order="stroke"  transform=" translate(-469.1943862388142, -559.2165)" d="m 471.488 401.691 c -37.359 82.188 -10.386 201.817 119.375 307.18 c -80.957 -24.66 -151.773 -103.273 -175.816 -99.992 c -23.945 3.281 -27.68 47.754 -17.094 107.863 c -61.441 -85.715 -66.363 -175.969 -16.812 -243.769 c 20.586 -28.379 50.8 -52.825 90.347 -71.282" stroke-linecap="round" />
</g>
</g>
</svg>
